<?xml version="1.0" encoding="utf-8"?>
<!-- Generator: Adobe Illustrator 24.1.0, SVG Export Plug-In . SVG Version: 6.00 Build 0)  -->
<svg version="1.1" id="Layer_1" xmlns="http://www.w3.org/2000/svg" xmlns:xlink="http://www.w3.org/1999/xlink" x="0px" y="0px"
	 viewBox="0 0 1920 1080" style="enable-background:new 0 0 1920 1080;" xml:space="preserve">
<style type="text/css">
	.st0{fill:#87B272;}
	.st1{fill:#526D45;}
	.st2{fill:#ED976B;}
	.st3{fill:#C16E49;}
	.st4{opacity:0.1;}
	.st5{fill:#F9E0D7;}
</style>
<rect x="1295" y="474" class="st0" width="5" height="101"/>
<g>
	<g>
		<g>
			<ellipse class="st0" cx="576" cy="492.43" rx="27.81" ry="78.43"/>
			<path class="st1" d="M603.81,492.43c0,29.73-10.42,57.03-27.81,78.43V414C593.39,435.4,603.81,462.7,603.81,492.43z"/>
		</g>
		<g>
			
				<ellipse transform="matrix(0.9848 -0.1736 0.1736 0.9848 -80.2856 103.0721)" class="st0" cx="549" cy="510.43" rx="27.81" ry="78.43"/>
			<path class="st1" d="M576.39,505.61c5.16,29.28-0.36,57.98-13.77,82.07l-27.24-154.49C556.22,451.25,571.22,476.33,576.39,505.61
				z"/>
		</g>
		<g>
			
				<ellipse transform="matrix(0.2757 -0.9612 0.9612 0.2757 -51.2572 948.8441)" class="st0" cx="604" cy="508.43" rx="78.43" ry="27.81"/>
			<path class="st1" d="M630.73,516.1c-8.2,28.58-25.74,51.95-48.36,67.73l43.25-150.79C636.44,458.41,638.93,487.52,630.73,516.1z"
				/>
		</g>
	</g>
	<g>
		<path class="st2" d="M650.5,583.5l-0.54,7.5l-8.48,118.78c-0.55,7.73-6.98,13.72-14.73,13.72h-102.5
			c-7.75,0-14.18-5.99-14.73-13.72L501.04,591l-0.54-7.5H650.5z"/>
		<g>
			<path class="st2" d="M665.5,562.5v16c0,2.76-2.24,5-5,5h-170c-2.76,0-5-2.24-5-5v-16c0-2.76,2.24-5,5-5h170
				C663.26,557.5,665.5,559.74,665.5,562.5z"/>
			<path class="st2" d="M665.5,562.5v16c0,2.76-2.24,5-5,5h-170c-2.76,0-5-2.24-5-5v-16c0-2.76,2.24-5,5-5h170
				C663.26,557.5,665.5,559.74,665.5,562.5z"/>
			<path class="st2" d="M665.5,562.5v16c0,2.76-2.24,5-5,5h-170c-2.76,0-5-2.24-5-5v-16c0-2.76,2.24-5,5-5h170
				C663.26,557.5,665.5,559.74,665.5,562.5z"/>
			<path class="st2" d="M665.5,562.5v16c0,2.76-2.24,5-5,5h-170c-2.76,0-5-2.24-5-5v-16c0-2.76,2.24-5,5-5h170
				C663.26,557.5,665.5,559.74,665.5,562.5z"/>
			<path class="st2" d="M665.5,562.5v16c0,2.76-2.24,5-5,5h-170c-2.76,0-5-2.24-5-5v-16c0-2.76,2.24-5,5-5h170
				C663.26,557.5,665.5,559.74,665.5,562.5z"/>
			<path class="st2" d="M665.5,562.5v16c0,2.76-2.24,5-5,5h-170c-2.76,0-5-2.24-5-5v-16c0-2.76,2.24-5,5-5h170
				C663.26,557.5,665.5,559.74,665.5,562.5z"/>
			<path class="st2" d="M665.5,562.5v16c0,2.76-2.24,5-5,5h-170c-2.76,0-5-2.24-5-5v-16c0-2.76,2.24-5,5-5h170
				C663.26,557.5,665.5,559.74,665.5,562.5z"/>
			<path class="st2" d="M665.5,562.5v16c0,2.76-2.24,5-5,5h-170c-2.76,0-5-2.24-5-5v-16c0-2.76,2.24-5,5-5h170
				C663.26,557.5,665.5,559.74,665.5,562.5z"/>
		</g>
		<polygon class="st3" points="650.5,583.5 649.96,591 501.04,591 500.5,583.5 		"/>
		<path class="st4" d="M665.5,562.5v16c0,2.76-2.24,5-5,5h-10l-0.54,7.5l-8.48,118.78c-0.55,7.73-6.98,13.72-14.73,13.72H576v-166
			h84.5C663.26,557.5,665.5,559.74,665.5,562.5z"/>
	</g>
</g>
<g>
	<path class="st2" d="M1371.5,597.5l-0.54,7.5l-8.48,118.78c-0.55,7.73-6.98,13.72-14.73,13.72h-102.5
		c-7.75,0-14.18-5.99-14.73-13.72L1222.04,605l-0.54-7.5H1371.5z"/>
	<g>
		<path class="st2" d="M1386.5,576.5v16c0,2.76-2.24,5-5,5h-170c-2.76,0-5-2.24-5-5v-16c0-2.76,2.24-5,5-5h170
			C1384.26,571.5,1386.5,573.74,1386.5,576.5z"/>
		<path class="st2" d="M1386.5,576.5v16c0,2.76-2.24,5-5,5h-170c-2.76,0-5-2.24-5-5v-16c0-2.76,2.24-5,5-5h170
			C1384.26,571.5,1386.5,573.74,1386.5,576.5z"/>
		<path class="st2" d="M1386.5,576.5v16c0,2.76-2.24,5-5,5h-170c-2.76,0-5-2.24-5-5v-16c0-2.76,2.24-5,5-5h170
			C1384.26,571.5,1386.5,573.74,1386.5,576.5z"/>
		<path class="st2" d="M1386.5,576.5v16c0,2.76-2.24,5-5,5h-170c-2.76,0-5-2.24-5-5v-16c0-2.76,2.24-5,5-5h170
			C1384.26,571.5,1386.5,573.74,1386.5,576.5z"/>
		<path class="st2" d="M1386.5,576.5v16c0,2.76-2.24,5-5,5h-170c-2.76,0-5-2.24-5-5v-16c0-2.76,2.24-5,5-5h170
			C1384.26,571.5,1386.5,573.74,1386.5,576.5z"/>
		<path class="st2" d="M1386.5,576.5v16c0,2.76-2.24,5-5,5h-170c-2.76,0-5-2.24-5-5v-16c0-2.76,2.24-5,5-5h170
			C1384.26,571.5,1386.5,573.74,1386.5,576.5z"/>
		<path class="st2" d="M1386.5,576.5v16c0,2.76-2.24,5-5,5h-170c-2.76,0-5-2.24-5-5v-16c0-2.76,2.24-5,5-5h170
			C1384.26,571.5,1386.5,573.74,1386.5,576.5z"/>
		<path class="st2" d="M1386.5,576.5v16c0,2.76-2.24,5-5,5h-170c-2.76,0-5-2.24-5-5v-16c0-2.76,2.24-5,5-5h170
			C1384.26,571.5,1386.5,573.74,1386.5,576.5z"/>
	</g>
	<polygon class="st3" points="1371.5,597.5 1370.96,605 1222.04,605 1221.5,597.5 	"/>
	<path class="st4" d="M1386.5,576.5v16c0,2.76-2.24,5-5,5h-10l-0.54,7.5l-8.48,118.78c-0.55,7.73-6.98,13.72-14.73,13.72H1297v-166
		h84.5C1384.26,571.5,1386.5,573.74,1386.5,576.5z"/>
</g>
<g>
	<g>
		<ellipse class="st0" cx="935" cy="511.02" rx="27.81" ry="78.43"/>
		<path class="st1" d="M962.81,511.02c0,29.73-10.42,57.03-27.81,78.43V432.58C952.39,453.98,962.81,481.29,962.81,511.02z"/>
	</g>
	<g>
		
			<ellipse transform="matrix(0.9848 -0.1736 0.1736 0.9848 -78.0596 165.6853)" class="st0" cx="908" cy="529.02" rx="27.81" ry="78.43"/>
		<path class="st1" d="M935.39,524.19c5.16,29.28-0.36,57.98-13.77,82.07l-27.24-154.49C915.22,469.83,930.22,494.91,935.39,524.19z
			"/>
	</g>
	<g>
		
			<ellipse transform="matrix(0.2757 -0.9612 0.9612 0.2757 190.9001 1307.3893)" class="st0" cx="963" cy="527.02" rx="78.43" ry="27.81"/>
		<path class="st1" d="M989.73,534.69c-8.2,28.58-25.74,51.95-48.36,67.73l43.25-150.79C995.44,476.99,997.93,506.11,989.73,534.69z
			"/>
	</g>
</g>
<g>
	<path class="st2" d="M1036,653.96c0,31.04-15.55,58.63-39.62,76.04H875.62C851.55,712.59,836,685,836,653.96
		c0-9.73,1.53-19.12,4.37-27.96c2.14-6.67,5.03-13.04,8.58-19c7-11.79,16.57-22.02,27.97-30h118.16c11.4,7.98,20.97,18.21,27.97,30
		c3.55,5.96,6.44,12.33,8.58,19C1034.47,634.84,1036,644.23,1036,653.96z"/>
	<path class="st5" d="M1031.63,626H840.37c2.14-6.67,5.03-13.04,8.58-19h174.1C1026.6,612.96,1029.49,619.33,1031.63,626z"/>
</g>
<path class="st4" d="M1036,653.96c0,31.04-15.55,58.63-39.62,76.04H936V577h59.08c11.4,7.98,20.97,18.21,27.97,30
	c3.55,5.96,6.44,12.33,8.58,19C1034.47,634.84,1036,644.23,1036,653.96z"/>
<g>
	
		<ellipse transform="matrix(0.7177 -0.6964 0.6964 0.7177 56.2554 1046.0415)" class="st0" cx="1318.27" cy="453.64" rx="32.37" ry="18.45"/>
	<path class="st1" d="M1331.12,466.88c-8.81,8.55-21.71,11.43-36.08,9.3l46.47-45.08C1343.19,445.53,1339.92,458.34,1331.12,466.88z
		"/>
</g>
<g>
	
		<ellipse transform="matrix(0.7003 -0.7139 0.7139 0.7003 20.2898 1063.6002)" class="st0" cx="1276.73" cy="507.64" rx="17.04" ry="32.37"/>
	<path class="st1" d="M1288.67,495.47c8.76,8.59,12.33,21.04,11.18,34.83l-46.22-45.34
		C1267.39,483.55,1279.91,486.88,1288.67,495.47z"/>
</g>
</svg>
